<svg width="38" height="38" viewBox="0 0 38 38" fill="none" xmlns="http://www.w3.org/2000/svg">
  <path d="M34.3226 1.83871H3.67742C1.65484 1.83871 0 3.49355 0 5.51613C0 7.53871 1.65484 9.19355 3.67742 9.19355H34.3226C36.3452 9.19355 38 7.53871 38 5.51613C38 3.49355 36.3452 1.83871 34.3226 1.83871Z" fill="#2D3436"/>
  <path d="M34.3226 15.3226H3.67742C1.65484 15.3226 0 16.9774 0 19C0 21.0226 1.65484 22.6774 3.67742 22.6774H34.3226C36.3452 22.6774 38 21.0226 38 19C38 16.9774 36.3452 15.3226 34.3226 15.3226Z" fill="#2D3436"/>
  <path d="M35.1935 29.0001H11.8065C10.2629 29.0001 9 30.5751 9 32.5001C9 34.4251 10.2629 36.0001 11.8065 36.0001H35.1935C36.7371 36.0001 38 34.4251 38 32.5001C38 30.5751 36.7371 29.0001 35.1935 29.0001Z" fill="#2D3436"/>
</svg>
