<svg width="25" height="25" viewBox="0 0 25 25" fill="none" xmlns="http://www.w3.org/2000/svg">
  <g clip-path="url(#clip0)">
    <path d="M24.9938 25V24.9989H25.0001V15.8302C25.0001 11.3448 24.0345 7.88959 18.7907 7.88959C16.2699 7.88959 14.5782 9.27292 13.8876 10.5844H13.8147V8.30834H8.84277V24.9989H14.0199V16.7344C14.0199 14.5583 14.4324 12.4542 17.1272 12.4542C19.7824 12.4542 19.8219 14.9375 19.8219 16.874V25H24.9938Z" fill="white"/>
    <path d="M0.412598 8.30939H5.59593V25H0.412598V8.30939Z" fill="white"/>
    <path d="M3.00208 0C1.34479 0 0 1.34479 0 3.00208C0 4.65938 1.34479 6.03229 3.00208 6.03229C4.65937 6.03229 6.00417 4.65938 6.00417 3.00208C6.00312 1.34479 4.65833 0 3.00208 0V0Z" fill="white"/>
  </g>
  <defs>
    <clipPath id="clip0">
      <rect width="25" height="25" fill="white"/>
    </clipPath>
  </defs>
</svg>
